<svg xmlns="http://www.w3.org/2000/svg" viewBox="0 0 520 520" width="520" height="520"><path d="M429.3,109.0 L459.9,111.5 L475.4,110.3 L476.7,111.5 L476.7,114.0 L471.1,117.7 L458.0,132.7 L457.4,140.8 L454.3,147.0 L454.3,289.6 L453.6,302.0 L452.4,303.3 L450.5,303.3 L449.9,300.8 L449.9,216.1 L448.7,199.9 L449.9,152.0 L448.7,142.0 L445.5,142.6 L441.8,147.6 L435.0,150.1 L433.7,152.0 L426.2,152.6 L423.7,150.7 L420.6,150.7 L422.5,156.3 L425.6,160.1 L425.6,163.2 L421.9,165.1 L423.7,167.5 L423.1,173.8 L431.2,181.2 L431.2,184.4 L426.9,187.5 L416.9,186.9 L415.0,190.0 L415.7,203.6 L418.1,204.3 L418.8,197.4 L423.7,198.7 L424.4,203.6 L428.1,206.8 L426.2,213.6 L428.7,216.1 L428.7,220.5 L420.6,226.1 L420.0,232.3 L416.9,236.0 L416.9,239.8 L415.0,242.9 L414.4,270.9 L415.7,275.3 L419.4,275.3 L420.0,277.7 L416.9,279.6 L416.9,285.8 L415.7,285.8 L414.4,288.3 L414.4,331.9 L415.7,335.0 L412.5,340.6 L410.7,341.2 L409.4,340.0 L408.8,336.3 L408.8,188.1 L407.6,185.6 L402.6,185.6 L397.6,189.3 L389.5,199.3 L382.0,204.3 L375.2,211.7 L369.6,214.9 L367.7,218.0 L359.0,222.3 L349.7,232.3 L342.2,237.3 L340.9,240.4 L337.8,241.6 L332.2,248.5 L321.0,255.9 L302.3,274.0 L293.0,279.6 L289.9,279.0 L290.5,274.0 L294.2,270.3 L299.2,268.4 L299.2,263.4 L295.5,262.8 L287.4,272.1 L278.7,278.4 L278.7,280.9 L284.3,279.6 L287.4,283.4 L286.2,285.2 L281.8,287.1 L277.4,280.9 L273.7,280.2 L272.5,285.2 L269.3,288.9 L272.5,293.3 L272.5,295.8 L270.6,297.7 L268.7,297.1 L266.8,292.7 L268.7,288.3 L266.2,284.0 L266.8,270.9 L265.6,265.9 L265.6,255.9 L267.5,250.4 L270.0,249.1 L272.5,245.4 L274.3,245.4 L276.2,242.3 L283.0,237.9 L291.8,230.4 L293.6,227.3 L296.1,226.7 L313.5,208.6 L325.4,200.5 L339.1,186.2 L342.2,185.0 L342.8,182.5 L345.3,181.9 L347.8,178.1 L367.1,163.2 L376.4,152.6 L378.9,152.0 L381.4,148.2 L394.5,137.0 L397.0,136.4 L398.8,133.3 L400.7,133.3 L410.7,122.1 L417.5,117.7 L423.1,111.5 L429.3,109.6 Z M454.3,114.0 L449.3,115.9 L435.0,115.2 L428.7,117.7 L428.7,120.2 L430.6,122.1 L430.6,125.8 L428.1,127.7 L428.7,135.2 L436.8,137.0 L439.3,134.6 L443.7,125.2 L445.5,125.2 L449.9,130.2 L449.3,135.2 L451.1,138.3 L453.0,138.3 L453.6,133.3 L456.7,130.2 L458.0,124.6 L463.0,119.0 L461.1,115.2 L454.9,114.0 Z" fill="#d9a441" fill-rule="evenodd" stroke="#fff" stroke-width="0.7"/><path d="M118.7,109.6 L314.8,110.3 L320.4,111.5 L365.2,111.5 L372.7,113.4 L387.0,112.8 L387.0,114.6 L382.7,117.1 L380.8,120.2 L378.9,120.2 L376.4,117.1 L373.9,117.1 L372.7,123.3 L374.6,124.0 L378.3,122.1 L378.3,124.0 L375.8,125.2 L375.2,127.7 L372.1,129.6 L369.6,133.3 L359.6,140.8 L343.4,139.5 L244.4,140.8 L242.0,143.9 L242.0,169.4 L228.9,181.9 L226.4,182.5 L225.1,185.0 L220.8,185.6 L209.6,178.1 L207.7,175.0 L205.2,174.4 L200.2,168.8 L200.2,142.0 L199.0,140.8 L78.2,140.8 L75.7,137.0 L68.2,133.3 L65.1,129.6 L62.6,128.9 L61.4,125.8 L59.5,125.8 L57.0,122.1 L45.8,114.0 L47.1,110.9 L118.7,110.3 Z M322.9,115.9 L316.7,118.4 L304.2,117.7 L303.6,120.9 L309.2,122.1 L312.3,127.1 L319.8,130.8 L319.8,132.1 L314.2,133.9 L332.8,135.2 L335.3,136.4 L339.1,136.4 L341.6,134.6 L339.7,130.2 L339.7,124.6 L344.0,122.1 L346.5,118.4 L340.9,115.9 L323.5,115.9 Z" fill="#d9a441" fill-rule="evenodd" stroke="#fff" stroke-width="0.7"/><path d="M43.3,140.1 L46.5,140.8 L53.3,148.2 L60.8,152.6 L62.6,155.7 L64.5,155.7 L65.1,157.6 L78.8,170.0 L82.5,171.3 L85.0,174.4 L86.9,174.4 L96.3,185.0 L99.4,186.2 L114.9,200.5 L117.4,201.2 L118.0,203.6 L120.5,204.3 L126.1,211.1 L143.0,223.6 L152.3,234.2 L167.2,246.6 L173.5,254.7 L176.0,262.2 L174.7,268.4 L176.0,280.9 L174.1,287.1 L176.6,290.2 L176.0,297.7 L171.6,298.9 L164.7,293.3 L162.3,289.6 L156.0,287.1 L151.7,282.7 L149.2,282.7 L143.0,274.6 L139.2,271.5 L136.1,270.9 L121.2,256.6 L119.3,256.6 L113.1,249.1 L104.3,244.1 L104.3,242.9 L101.2,241.6 L90.7,230.4 L78.2,222.3 L68.2,211.7 L54.5,200.5 L52.0,199.9 L46.5,193.1 L43.3,193.1 L43.3,140.8 Z" fill="#d9a441" fill-rule="evenodd" stroke="#fff" stroke-width="0.7"/><path d="M112.4,160.1 L157.9,160.1 L169.1,170.6 L176.6,175.0 L182.2,181.9 L184.7,182.5 L185.9,185.6 L188.4,186.2 L194.6,193.1 L200.8,196.8 L207.7,204.3 L213.9,208.6 L215.8,211.7 L219.5,213.6 L225.1,211.7 L232.6,204.3 L235.1,203.6 L240.1,197.4 L250.7,189.3 L252.5,186.2 L255.0,185.6 L261.2,178.1 L263.1,178.1 L268.7,171.9 L272.5,170.6 L278.7,163.8 L281.8,163.2 L284.9,160.1 L315.4,161.3 L329.1,163.8 L329.1,165.7 L324.1,168.8 L317.3,177.5 L301.7,190.0 L293.0,199.9 L290.5,200.5 L288.6,203.6 L276.2,212.4 L266.8,222.3 L263.7,223.6 L263.1,226.1 L260.6,226.7 L250.7,237.3 L245.1,241.0 L243.8,243.5 L242.6,386.1 L240.7,391.1 L238.8,386.7 L239.5,376.1 L237.6,352.5 L236.3,349.4 L237.0,313.9 L236.3,306.4 L233.8,304.5 L232.0,320.1 L228.9,321.3 L225.8,325.1 L219.5,324.4 L215.8,329.4 L210.2,330.0 L211.4,356.8 L209.6,359.9 L209.6,381.1 L207.1,391.7 L207.1,407.9 L204.0,411.0 L201.5,402.9 L200.2,367.4 L200.8,243.5 L195.9,237.9 L193.4,237.3 L176.0,222.9 L173.5,219.2 L171.6,219.2 L165.4,211.7 L162.9,211.1 L147.3,196.8 L144.8,196.2 L144.2,193.7 L141.7,193.1 L131.7,182.5 L123.0,176.9 L117.4,170.6 L115.5,170.6 L114.9,168.8 L110.6,165.7 L110.0,161.9 L112.4,160.7 Z" fill="#d9a441" fill-rule="evenodd" stroke="#fff" stroke-width="0.7"/></svg>